# AST/ASF file generated using VICON BodyLanguage
# -----------------------------------------------
:version 1.10
:name VICON
:units
  mass 1.0
  length 0.45
  angle deg
:documentation
   .ast/.asf automatically generated from VICON data using
   VICON BodyBuilder and BodyLanguage model FoxedUp or BRILLIANT.MOD
:root
   order TX TY TZ RX RY RZ
   axis XYZ
   position 0 0 0  
   orientation 0 0 0 
:bonedata
  begin
     id 1 
     name lhipjoint
     direction 0.64773 -0.699417 0.302095 
     length 2.48597 
     axis 0 0 0  XYZ
  end
  begin
     id 2 
     name lfemur
     direction 0.34202 -0.939693 0  
     length 6.71947  
     axis 0 0 20  XYZ
    dof rx ry rz
    limits (-160.0 20.0)
           (-70.0 70.0)
           (-60.0 70.0)
  end
  begin
     id 3 
     name ltibia
     direction 0.34202 -0.939693 0   
     length 8.08777   
     axis 0 0 20   XYZ
    dof rx
    limits (-10.0 170.0)
  end
  begin
     id 4 
     name lfoot
     direction 0.0808503 -0.222134 0.971658   
     length 2.08264   
     axis -90 7.62852e-016 20   XYZ
    dof rx rz
    limits (-45.0 90.0)
           (-70.0 20.0)
  end
  begin
     id 5 
     name ltoes
     direction 1.53502e-011 -4.22007e-011 1   
     length 1.04662   
     axis -90 7.62852e-016 20   XYZ
    dof rx
    limits (-90.0 20.0)
  end
  begin
     id 6 
     name rhipjoint
     direction -0.610924 -0.726792 0.313919   
     length 2.39233  
     axis 0 0 0  XYZ 
  end
  begin
     id 7 
     name rfemur
     direction -0.34202 -0.939693 0   
     length 6.96955   
     axis 0 0 -20   XYZ
    dof rx ry rz
    limits (-160.0 20.0)
           (-70.0 70.0)
           (-70.0 60.0)
  end
  begin
     id 8 
     name rtibia
     direction -0.34202 -0.939693 0   
     length 8.19584   
     axis 0 0 -20   XYZ
    dof rx
    limits (-10.0 170.0)
 end
 begin
     id 9 
     name rfoot
     direction -0.077777 -0.213691 0.9738   
     length 2.07539  
     axis -90 -7.62852e-016 -20   XYZ
    dof rx rz
    limits (-45.0 90.0)
           (-20.0 70.0)
  end
  begin
     id 10 
     name rtoes
     direction -1.53558e-011 -4.22006e-011 1   
     length 1.04381   
     axis -90 -7.62852e-016 -20   XYZ
    dof rx
    limits (-90.0 20.0)
  end
  begin
     id 11 
     name lowerback
     direction -0.00971646 0.996074 0.0879841   
     length 1.67643   
     axis 0 0 0   XYZ
    dof rx ry rz
    limits (-20.0 45.0)
           (-30.0 30.0)
           (-30.0 30.0)
  end
  begin
     id 12 
     name upperback
     direction 0.0127391 0.991676 0.128127   
     length 1.63741   
     axis 0 0 0   XYZ
    dof rx ry rz
    limits (-20.0 45.0)
           (-30.0 30.0)
           (-30.0 30.0)
  end
  begin
     id 13 
     name thorax
     direction 0.0167583 0.996049 0.0872067   
     length 1.65931   
     axis 0 0 0   XYZ
    dof rx ry rz
    limits (-20.0 45.0)
           (-30.0 30.0)
           (-30.0 30.0)
  end
  begin
     id 14 
     name lowerneck
     direction -0.0317829 0.998312 0.0486079   
     length 1.79021   
     axis 0 0 0   XYZ
    dof rx ry rz
    limits (-20.0 45.0)
           (-30.0 30.0)
           (-30.0 30.0)
  end
  begin
     id 15 
     name upperneck
     direction 0.0896851 0.972452 -0.215159   
     length 1.78797   
     axis 0 0 0   XYZ
    dof rx ry rz
    limits (-20.0 45.0)
           (-30.0 30.0)
           (-30.0 30.0)
  end
  begin
     id 16
     name head
     direction 0.0310949 0.996503 -0.0775582  
     length 1.81549  
     axis 0 0 0   XYZ
    dof rx ry rz
    limits (-20.0 45.0)
           (-30.0 30.0)
           (-30.0 30.0)
  end
  begin
     id 17 
     name lclavicle
     direction 0.853638 0.502051 -0.138733  
     length 3.31627  
     axis 0 0 0   XYZ
    dof ry rz
    limits (-20.0 10.0)
           (0.0 20.0)
  end
  begin
     id 18 
     name lhumerus
     direction 1 -4.48962e-011 -1.41788e-018   
     length 5.54893   
     axis 180 -30 -90   XYZ
    dof rx ry rz
    limits (-60.0 90.0)
           (-90.0 90.0)
           (-90.0 90.0)
  end
  begin
     id 19
     name lradius
     direction 1 -4.48962e-011 -4.95754e-027   
     length 3.02898   
     axis 180 -30 -90   XYZ
    dof rx
    limits (-10.0 170.0)
  end
  begin
     id 20
     name lwrist
     direction 1 -4.48952e-011 -1.03764e-026   
     length 1.51449   
     axis 9.09556e-015 90 90   XYZ
    dof ry
    limits (-180.0 0.0)
 end
  begin
     id 21 
     name lhand
     direction 1 -4.4902e-011 -2.07528e-026   
     length 0.640951   
     axis 1.3242e-014 90 90   XYZ
    dof rx rz
    limits (-90.0 90.0)
           (-45.0 45.0)
  end
  begin
     id 22 
     name lfingers
     direction 1 -4.49014e-011 -4.15056e-026   
     length 0.516751   
     axis 2.64841e-014 90 90   XYZ
    dof rx
    limits (0.0 90.0)
  end
  begin
     id 23
     name lthumb
     direction 0.707107 -6.35008e-011 0.707107   
     length 0.741954   
     axis -90 45 2.85299e-015   XYZ
    dof rx rz
    limits (-45.0 45.0)
           (-45.0 45.0)
  end
  begin
     id 24 
     name rclavicle
     direction -0.888531 0.455324 -0.0565039   
     length 3.20126  
     axis 0 0 0   XYZ 
    dof ry rz
    limits (-10.0 20.0)
           (-20.0 0.0)
  end
  begin
     id 25 
     name rhumerus
     direction -1 -4.48946e-011 -8.98298e-028  
     length 5.3519   
     axis 180 30 90   XYZ
    dof rx ry rz
    limits (-90.0 60.0)
           (-90.0 90.0)
           (-90.0 90.0)
  end
  begin
     id 26 
     name rradius
     direction -1 -4.4899e-011 -3.18779e-027   
     length 3.02531   
     axis 180 30 90   XYZ
    dof rx
    limits (-10.0 170.0)
  end
  begin
     id 27 
     name rwrist
     direction -1 -4.4897e-011 -1.03764e-026   
     length 1.51266   
     axis 9.09556e-015 -90 -90   XYZ
    dof ry
    limits (-180.0 0.0)
  end
  begin
     id 28
     name rhand
     direction -1 -4.48941e-011 -2.07528e-026   
     length 0.78389   
     axis 1.3242e-014 -90 -90   XYZ
    dof rx rz
    limits (-90.0 90.0)
           (-45.0 45.0)
  end
  begin
     id 29
     name rfingers
     direction -1 -4.49012e-011 -4.15056e-026   
     length 0.631992   
     axis 2.64841e-014 -90 -90   XYZ
    dof rx
    limits (0.0 90.0)
  end
  begin
     id 30
     name rthumb
     direction -0.707107 -6.3496e-011 0.707107   
     length 0.907418   
     axis -90 -45 -2.85299e-015   XYZ
    dof rx rz
    limits (-45.0 45.0)
           (-45.0 45.0)
  end
:hierarchy
  begin
    root lhipjoint rhipjoint lowerback
    lhipjoint lfemur
    lfemur ltibia
    ltibia lfoot
    lfoot ltoes
    rhipjoint rfemur
    rfemur rtibia
    rtibia rfoot
    rfoot rtoes
    lowerback upperback
    upperback thorax
    thorax lowerneck lclavicle rclavicle
    lowerneck upperneck
    upperneck head
    lclavicle lhumerus
    lhumerus lradius
    lradius lwrist
    lwrist lhand lthumb
    lhand lfingers
    rclavicle rhumerus
    rhumerus rradius
    rradius rwrist
    rwrist rhand rthumb
    rhand rfingers
  end

#!OML:ASF E:\Style3\Style3.ASF
:FULLY-SPECIFIED
:DEGREES
301
root 0.164526 17.8704 0.655338 57.2904 91.6465 42.4951
lowerback -9.40776 -2.30087 -1.35556
upperback -11.83 -2.23725 1.91766
thorax -7.07353 -0.62774 2.67106
lowerneck -10.0473 -2.74148 -6.20119
upperneck 24.2145 -4.36241 9.01053
head 9.61225 -1.42614 3.74499
rclavicle 6.85807e-015 -1.27222e-014
rhumerus 49.6614 66.8797 -13.9678
rradius 106.888
rwrist -59.5554
rhand 5.59801 16.9558
rfingers 7.12502
rthumb 30.9402 -10.4571
lclavicle 6.85807e-015 -1.27222e-014
lhumerus 31.6559 -37.9189 37.6177
lradius 81.5813
lwrist 46.42
lhand -0.969091 12.9479
lfingers 7.12502
lthumb 24.6618 41.3788
rfemur -14.1755 11.0665 18.9718
rtibia 13.9061
rfoot -13.6674 -21.0213
rtoes -13.7726
lfemur 0 0 0
ltibia 0
lfoot 0 0
ltoes 0
302
root 0.165862 17.8689 0.654521 58.9221 91.559 44.0958
lowerback -10.194 -2.16811 -0.827355
upperback -11.4304 -2.1243 1.47517
thorax -6.23272 -0.656263 1.88214
lowerneck -10.2049 -2.76605 -5.92739
upperneck 23.9019 -4.51226 9.32073
head 9.54645 -1.44301 3.78064
rclavicle 1.88597e-014 2.48481e-015
rhumerus 51.6124 67.9895 -12.1889
rradius 104.974
rwrist -57.7556
rhand 5.10769 16.3071
rfingers 7.12502
rthumb 30.4727 -11.1935
lclavicle 1.88597e-014 2.48481e-015
lhumerus 32.2993 -35.7985 37.345
lradius 83.3234
lwrist 47.2204
lhand -0.325409 13.0422
lfingers 7.12502
lthumb 25.2787 41.3873
rfemur -14.2545 11.0763 18.9195
rtibia 13.9909
rfoot -13.6832 -20.9462
rtoes -13.7268
lfemur 0 0 0
ltibia 0
lfoot 0 0
ltoes 0
303
root 0.16715 17.8686 0.653293 59.9863 91.4247 45.1274
lowerback -10.087 -2.12842 -0.966836
upperback -11.5146 -2.0601 1.44657
thorax -6.38355 -0.610528 1.93759
lowerneck -10.0878 -2.80139 -6.03252
upperneck 23.826 -4.5706 9.44776
head 9.50774 -1.46972 3.83581
rclavicle 4.99446e-015 0
rhumerus 53.7164 69.5314 -9.7631
rradius 103.007
rwrist -55.9119
rhand 4.92878 15.8745
rfingers 7.12502
rthumb 30.302 -11.6576
lclavicle 4.99446e-015 0
lhumerus 32.2199 -34.2801 37.9158
lradius 85.0423
lwrist 48.0882
lhand -0.470462 13.0025
lfingers 7.12502
lthumb 25.1397 41.3673
rfemur -14.3608 11.1049 18.8077
rtibia 14.094
rfoot -13.6877 -20.8828
rtoes -14.1297
lfemur 0 0 0
ltibia 0
lfoot 0 0
ltoes 0
304
root 0.168622 17.8696 0.651925 59.6788 91.2547 44.759
lowerback -10.1439 -2.08332 -1.14012
upperback -11.5207 -1.99102 1.39854
thorax -6.35746 -0.564843 1.98551
lowerneck -10.1162 -2.85407 -6.1621
upperneck 23.7961 -4.65748 9.6157
head 9.51763 -1.50387 3.90725
rclavicle -1.67228e-014 5.56597e-015
rhumerus 55.5324 70.7574 -7.72614
rradius 100.758
rwrist -53.9592
rhand 5.22351 15.9112
rfingers 7.12502
rthumb 30.5831 -11.5689
lclavicle -1.67228e-014 5.56597e-015
lhumerus 32.3121 -32.86 38.2772
lradius 87.0194
lwrist 49.1651
lhand -0.884325 13.4245
lfingers 7.12502
lthumb 24.7431 41.8443
rfemur -14.4897 11.109 18.6282
rtibia 14.167
rfoot -13.7101 -20.8232
rtoes -14.2504
lfemur 0 0 0
ltibia 0
lfoot 0 0
ltoes 0
305
root 0.169559 17.8692 0.650807 62.6127 91.1957 47.6953
lowerback -10.1506 -2.02233 -1.11211
upperback -11.5047 -1.91491 1.34409
thorax -6.34195 -0.532129 1.91576
lowerneck -10.0743 -2.90462 -6.22486
upperneck 23.658 -4.73698 9.71763
head 9.47238 -1.54058 3.94127
rclavicle -1.89591e-014 -1.45113e-014
rhumerus 57.0681 71.7423 -6.11873
rradius 98.4252
rwrist -52.2666
rhand 5.68365 15.9526
rfingers 7.12502
rthumb 31.0218 -11.4447
lclavicle -1.89591e-014 -1.45113e-014
lhumerus 32.4687 -31.6671 38.3569
lradius 89.2918
lwrist 50.5058
lhand -1.72421 14.087
lfingers 7.12502
lthumb 23.9379 42.6149
rfemur -14.5146 11.1235 18.6118
rtibia 14.2013
rfoot -13.7082 -20.7652
rtoes -14.3043
lfemur 0 0 0
ltibia 0
lfoot 0 0
ltoes 0
306
root 0.171635 17.8682 0.650842 68.6105 91.2181 53.7444
lowerback -10.1525 -1.95295 -0.992312
upperback -11.4391 -1.83598 1.32526
thorax -6.27588 -0.506022 1.8318
lowerneck -10.1815 -2.9528 -6.23698
upperneck 23.5805 -4.79844 9.71349
head 9.47189 -1.57197 3.93171
rclavicle 3.12092e-014 -2.68359e-015
rhumerus 58.6877 72.4448 -4.5474
rradius 96.0263
rwrist -50.9279
rhand 5.74878 15.91
rfingers 7.12502
rthumb 31.0839 -11.4755
lclavicle 3.12092e-014 -2.68359e-015
lhumerus 32.4722 -30.5917 38.4723
lradius 91.5348
lwrist 51.6876
lhand -2.19644 14.107
lfingers 7.12502
lthumb 23.485 42.6935
rfemur -14.4634 11.3421 18.6953
rtibia 14.1997
rfoot -13.7061 -20.8347
rtoes -14.4347
lfemur 0 0 0
ltibia 0
lfoot 0 0
ltoes 0
307
root 0.173348 17.8676 0.64905 71.803 91.1887 57.0042
lowerback -10.1202 -1.91786 -1.09687
upperback -11.375 -1.78803 1.39622
thorax -6.21972 -0.474958 1.96699
lowerneck -10.1765 -2.99561 -6.26897
upperneck 23.3599 -4.81269 9.56383
head 9.39208 -1.6061 3.87536
rclavicle 1.42131e-014 -3.8763e-015
rhumerus 60.3289 72.9939 -2.79823
rradius 93.6281
rwrist -49.661
rhand 5.25429 16.1848
rfingers 7.12502
rthumb 30.6125 -11.2898
lclavicle 1.42131e-014 -3.8763e-015
lhumerus 32.4277 -29.7189 38.6093
lradius 93.771
lwrist 52.6225
lhand -2.26472 14.0337
lfingers 7.12502
lthumb 23.4195 42.6286
rfemur -14.371 11.483 18.6898
rtibia 14.1595
rfoot -13.6873 -20.9205
rtoes -14.2081
lfemur 0 0 0
ltibia 0
lfoot 0 0
ltoes 0
308
root 0.174321 17.8676 0.647253 74.1398 91.1403 59.3596
lowerback -10.0617 -1.88034 -1.24046
upperback -11.3702 -1.72909 1.47655
thorax -6.24316 -0.431524 2.13588
lowerneck -10.1009 -3.04225 -6.38804
upperneck 23.1399 -4.82577 9.45246
head 9.30221 -1.64406 3.84872
rclavicle 2.30839e-014 -2.5842e-015
rhumerus 61.7311 73.4057 -1.27065
rradius 91.188
rwrist -48.8117
rhand 4.47095 16.6638
rfingers 7.12502
rthumb 29.8652 -10.9478
lclavicle 2.30839e-014 -2.5842e-015
lhumerus 32.3878 -29.1934 38.6113
lradius 96.1423
lwrist 53.3144
lhand -2.26993 13.8439
lfingers 7.12502
lthumb 23.4145 42.4394
rfemur -14.3142 11.6231 18.6411
rtibia 14.0923
rfoot -13.6681 -20.9617
rtoes -13.8356
lfemur 0 0 0
ltibia 0
lfoot 0 0
ltoes 0
309
root 0.176016 17.8681 0.643572 79.4655 91.025 64.6637
lowerback -10.0825 -1.81982 -1.2904
upperback -11.3763 -1.64502 1.47145
thorax -6.2412 -0.385561 2.16202
lowerneck -10.0468 -3.08122 -6.4755
upperneck 23.0063 -4.85126 9.40602
head 9.24879 -1.67433 3.84089
rclavicle 1.1455e-014 -1.50082e-014
rhumerus 62.3489 73.5725 -0.721507
rradius 88.8031
rwrist -48.4792
rhand 3.83761 16.7754
rfingers 7.12502
rthumb 29.2607 -10.9432
lclavicle 1.1455e-014 -1.50082e-014
lhumerus 32.3039 -28.9917 38.313
lradius 98.5159
lwrist 53.6701
lhand -2.35747 13.6421
lfingers 7.12502
lthumb 23.3305 42.2483
rfemur -14.3438 11.5719 18.5432
rtibia 14.0788
rfoot -13.5969 -20.8163
rtoes -13.9279
lfemur 0 0 0
ltibia 0
lfoot 0 0
ltoes 0
310
root 0.178096 17.8673 0.639956 88.8694 90.959 74.0345
lowerback -10.1557 -1.76238 -1.23118
upperback -11.3538 -1.57302 1.45396
thorax -6.18122 -0.356019 2.11205
lowerneck -10.0662 -3.07262 -6.50184
upperneck 22.9117 -4.82734 9.38808
head 9.21754 -1.6705 3.83891
rclavicle 3.3048e-015 -6.26172e-015
rhumerus 62.5632 73.5242 -0.768682
rradius 86.4976
rwrist -48.3723
rhand 2.96241 16.8392
rfingers 7.12502
rthumb 28.4246 -11.022
lclavicle 3.3048e-015 -6.26172e-015
lhumerus 32.1629 -28.9828 37.7823
lradius 100.921
lwrist 53.9103
lhand -2.37216 13.9992
lfingers 7.12502
lthumb 23.3164 42.6072
rfemur -14.4174 11.6169 18.4818
rtibia 14.1044
rfoot -13.6045 -20.669
rtoes -14.0577
lfemur 0 0 0
ltibia 0
lfoot 0 0
ltoes 0
311
root 0.180027 17.8669 0.636784 99.3177 90.8751 84.5545
lowerback -10.0972 -1.72485 -1.21679
upperback -11.3216 -1.53084 1.43148
thorax -6.18085 -0.339546 2.08333
lowerneck -10.0006 -3.03909 -6.5694
upperneck 22.7504 -4.7724 9.42416
head 9.14634 -1.65338 3.86533
rclavicle -7.85199e-015 -4.57205e-015
rhumerus 62.2117 73.2658 -1.40245
rradius 84.353
rwrist -48.5641
rhand 2.35029 16.9952
rfingers 7.12502
rthumb 27.8395 -10.9622
lclavicle -7.85199e-015 -4.57205e-015
lhumerus 31.9667 -29.285 37.1594
lradius 103.335
lwrist 53.8816
lhand -2.4689 14.4533
lfingers 7.12502
lthumb 23.2236 43.073
rfemur -14.3739 11.6445 18.3914
rtibia 14.1372
rfoot -13.6222 -20.486
rtoes -14.396
lfemur 0 0 0
ltibia 0
lfoot 0 0
ltoes 0
312
root 0.181235 17.8673 0.63383 111.003 90.8009 96.2215
lowerback -10.1282 -1.68663 -1.23081
upperback -11.3194 -1.47991 1.41768
thorax -6.16366 -0.314037 2.07847
lowerneck -9.97285 -3.03856 -6.71054
upperneck 22.6501 -4.75082 9.4573
head 9.10847 -1.65625 3.90107
rclavicle 1.26974e-014 -1.94809e-014
rhumerus 61.2696 72.7908 -2.62544
rradius 82.3941
rwrist -49.1074
rhand 1.75931 16.9688
rfingers 7.12502
rthumb 27.2744 -11.0788
lclavicle 1.26974e-014 -1.94809e-014
lhumerus 31.7162 -29.8959 36.5053
lradius 105.428
lwrist 53.4005
lhand -1.71144 13.773
lfingers 7.12502
lthumb 23.9501 42.2992
rfemur -14.4362 11.7827 18.247
rtibia 14.175
rfoot -13.5817 -20.4374
rtoes -14.788
lfemur 0 0 0
ltibia 0
lfoot 0 0
ltoes 0
313
root 0.180113 17.8673 0.630126 122.144 90.8455 107.342
lowerback -10.1329 -1.61844 -1.14581
upperback -11.3279 -1.39355 1.4051
thorax -6.17653 -0.277033 2.02185
lowerneck -9.95818 -3.04581 -6.7457
upperneck 22.5849 -4.74179 9.40534
head 9.08194 -1.66321 3.88802
rclavicle 8.89561e-015 3.57812e-015
rhumerus 59.5845 72.1585 -4.60776
rradius 80.6255
rwrist -49.648
rhand 0.886258 16.8382
rfingers 7.12502
rthumb 26.439 -11.3378
lclavicle 8.89561e-015 3.57812e-015
lhumerus 31.5894 -30.9328 35.5374
lradius 107.326
lwrist 52.5352
lhand -0.962624 13.1749
lfingers 7.12502
lthumb 24.668 41.6049
rfemur -14.5453 11.9049 18.1939
rtibia 14.2612
rfoot -13.4855 -20.368
rtoes -15.2383
lfemur 0 0 0
ltibia 0
lfoot 0 0
ltoes 0
